# Blender 3.4.1
# www.blender.org
mtllib cylinder3.mtl
o Cylinder
v 0.000000 -0.500000 0.000000
v 0.000000 0.500000 0.000000
v 0.000000 -0.500000 -0.500000
v 0.000000 0.500000 -0.500000
v 0.097545 -0.500000 -0.490393
v 0.097545 0.500000 -0.490393
v 0.191342 -0.500000 -0.461940
v 0.191342 0.500000 -0.461940
v 0.277785 -0.500000 -0.415735
v 0.277785 0.500000 -0.415735
v 0.353553 -0.500000 -0.353553
v 0.353553 0.500000 -0.353553
v 0.415735 -0.500000 -0.277785
v 0.415735 0.500000 -0.277785
v 0.461940 -0.500000 -0.191342
v 0.461940 0.500000 -0.191342
v 0.490393 -0.500000 -0.097545
v 0.490393 0.500000 -0.097545
v 0.500000 -0.500000 0.000000
v 0.500000 0.500000 0.000000
v 0.490393 -0.500000 0.097545
v 0.490393 0.500000 0.097545
v 0.461940 -0.500000 0.191342
v 0.461940 0.500000 0.191342
v 0.415735 -0.500000 0.277785
v 0.415735 0.500000 0.277785
v 0.353553 -0.500000 0.353553
v 0.353553 0.500000 0.353553
v 0.277785 -0.500000 0.415735
v 0.277785 0.500000 0.415735
v 0.191342 -0.500000 0.461940
v 0.191342 0.500000 0.461940
v 0.097545 -0.500000 0.490393
v 0.097545 0.500000 0.490393
v 0.000000 -0.500000 0.500000
v 0.000000 0.500000 0.500000
v -0.097545 -0.500000 0.490393
v -0.097545 0.500000 0.490393
v -0.191342 -0.500000 0.461940
v -0.191342 0.500000 0.461940
v -0.277785 -0.500000 0.415735
v -0.277785 0.500000 0.415735
v -0.353553 -0.500000 0.353553
v -0.353553 0.500000 0.353553
v -0.415735 -0.500000 0.277785
v -0.415735 0.500000 0.277785
v -0.461940 -0.500000 0.191342
v -0.461940 0.500000 0.191342
v -0.490393 -0.500000 0.097545
v -0.490393 0.500000 0.097545
v -0.500000 -0.500000 0.000000
v -0.500000 0.500000 0.000000
v -0.490393 -0.500000 -0.097545
v -0.490393 0.500000 -0.097545
v -0.461940 -0.500000 -0.191342
v -0.461940 0.500000 -0.191342
v -0.415735 -0.500000 -0.277785
v -0.415735 0.500000 -0.277785
v -0.353553 -0.500000 -0.353553
v -0.353553 0.500000 -0.353553
v -0.277785 -0.500000 -0.415735
v -0.277785 0.500000 -0.415735
v -0.191342 -0.500000 -0.461940
v -0.191342 0.500000 -0.461940
v -0.097545 -0.500000 -0.490393
v -0.097545 0.500000 -0.490393
vn -0.0000 -1.0000 -0.0000
vn -0.0000 1.0000 -0.0000
vn -0.0000 -0.0000 -1.0000
vn 0.1951 -0.0000 -0.9808
vn 0.3827 -0.0000 -0.9239
vn 0.5556 -0.0000 -0.8315
vn 0.7071 -0.0000 -0.7071
vn 0.8315 -0.0000 -0.5556
vn 0.9239 -0.0000 -0.3827
vn 0.9808 -0.0000 -0.1951
vn 1.0000 -0.0000 -0.0000
vn 0.9808 -0.0000 0.1951
vn 0.9239 -0.0000 0.3827
vn 0.8315 -0.0000 0.5556
vn 0.7071 -0.0000 0.7071
vn 0.5556 -0.0000 0.8315
vn 0.3827 -0.0000 0.9239
vn 0.1951 -0.0000 0.9808
vn -0.0000 -0.0000 1.0000
vn -0.1951 -0.0000 0.9808
vn -0.3827 -0.0000 0.9239
vn -0.5556 -0.0000 0.8315
vn -0.7071 -0.0000 0.7071
vn -0.8315 -0.0000 0.5556
vn -0.9239 -0.0000 0.3827
vn -0.9808 -0.0000 0.1951
vn -1.0000 -0.0000 -0.0000
vn -0.9808 -0.0000 -0.1951
vn -0.9239 -0.0000 -0.3827
vn -0.8315 -0.0000 -0.5556
vn -0.7071 -0.0000 -0.7071
vn -0.5556 -0.0000 -0.8315
vn -0.3827 -0.0000 -0.9239
vn -0.1951 -0.0000 -0.9808
vt 0.750000 0.250000
vt 0.250000 0.250000
vt 1.000000 0.500000
vt 0.750000 0.490000
vt 0.000000 0.500000
vt 0.250000 0.490000
vt 1.000000 1.000000
vt 0.000000 1.000000
vt 0.796822 0.485388
vt 0.968750 0.500000
vt 0.296822 0.485388
vt 0.968750 1.000000
vt 0.841844 0.471731
vt 0.937500 0.500000
vt 0.341844 0.471731
vt 0.937500 1.000000
vt 0.883337 0.449553
vt 0.906250 0.500000
vt 0.383337 0.449553
vt 0.906250 1.000000
vt 0.919706 0.419706
vt 0.875000 0.500000
vt 0.419706 0.419706
vt 0.875000 1.000000
vt 0.949553 0.383337
vt 0.843750 0.500000
vt 0.449553 0.383337
vt 0.843750 1.000000
vt 0.971731 0.341844
vt 0.812500 0.500000
vt 0.471731 0.341844
vt 0.812500 1.000000
vt 0.985388 0.296822
vt 0.781250 0.500000
vt 0.485388 0.296822
vt 0.781250 1.000000
vt 0.990000 0.250000
vt 0.750000 0.500000
vt 0.490000 0.250000
vt 0.750000 1.000000
vt 0.985388 0.203178
vt 0.718750 0.500000
vt 0.485388 0.203178
vt 0.718750 1.000000
vt 0.971731 0.158156
vt 0.687500 0.500000
vt 0.471731 0.158156
vt 0.687500 1.000000
vt 0.949553 0.116663
vt 0.656250 0.500000
vt 0.449553 0.116663
vt 0.656250 1.000000
vt 0.919706 0.080294
vt 0.625000 0.500000
vt 0.419706 0.080294
vt 0.625000 1.000000
vt 0.883337 0.050447
vt 0.593750 0.500000
vt 0.383337 0.050447
vt 0.593750 1.000000
vt 0.841844 0.028269
vt 0.562500 0.500000
vt 0.341844 0.028269
vt 0.562500 1.000000
vt 0.796822 0.014612
vt 0.531250 0.500000
vt 0.296822 0.014612
vt 0.531250 1.000000
vt 0.750000 0.010000
vt 0.500000 0.500000
vt 0.250000 0.010000
vt 0.500000 1.000000
vt 0.703178 0.014612
vt 0.468750 0.500000
vt 0.203178 0.014612
vt 0.468750 1.000000
vt 0.658156 0.028269
vt 0.437500 0.500000
vt 0.158156 0.028269
vt 0.437500 1.000000
vt 0.616663 0.050447
vt 0.406250 0.500000
vt 0.116663 0.050447
vt 0.406250 1.000000
vt 0.580294 0.080294
vt 0.375000 0.500000
vt 0.080294 0.080294
vt 0.375000 1.000000
vt 0.550447 0.116663
vt 0.343750 0.500000
vt 0.050447 0.116663
vt 0.343750 1.000000
vt 0.528269 0.158156
vt 0.312500 0.500000
vt 0.028269 0.158156
vt 0.312500 1.000000
vt 0.514612 0.203178
vt 0.281250 0.500000
vt 0.014612 0.203178
vt 0.281250 1.000000
vt 0.510000 0.250000
vt 0.250000 0.500000
vt 0.010000 0.250000
vt 0.250000 1.000000
vt 0.514612 0.296822
vt 0.218750 0.500000
vt 0.014612 0.296822
vt 0.218750 1.000000
vt 0.528269 0.341844
vt 0.187500 0.500000
vt 0.028269 0.341844
vt 0.187500 1.000000
vt 0.550447 0.383337
vt 0.156250 0.500000
vt 0.050447 0.383337
vt 0.156250 1.000000
vt 0.580294 0.419706
vt 0.125000 0.500000
vt 0.080294 0.419706
vt 0.125000 1.000000
vt 0.616663 0.449553
vt 0.093750 0.500000
vt 0.116663 0.449553
vt 0.093750 1.000000
vt 0.658156 0.471731
vt 0.062500 0.500000
vt 0.158156 0.471731
vt 0.062500 1.000000
vt 0.703178 0.485388
vt 0.031250 0.500000
vt 0.203178 0.485388
vt 0.031250 1.000000
s 1
f 1/1/1 3/4/1 5/9/1
f 2/2/2 6/11/2 4/6/2
f 4/7/3 5/10/4 3/3/3
f 1/1/1 5/9/1 7/13/1
f 2/2/2 8/15/2 6/11/2
f 6/12/4 7/14/5 5/10/4
f 1/1/1 7/13/1 9/17/1
f 2/2/2 10/19/2 8/15/2
f 8/16/5 9/18/6 7/14/5
f 1/1/1 9/17/1 11/21/1
f 2/2/2 12/23/2 10/19/2
f 10/20/6 11/22/7 9/18/6
f 1/1/1 11/21/1 13/25/1
f 2/2/2 14/27/2 12/23/2
f 12/24/7 13/26/8 11/22/7
f 1/1/1 13/25/1 15/29/1
f 2/2/2 16/31/2 14/27/2
f 14/28/8 15/30/9 13/26/8
f 1/1/1 15/29/1 17/33/1
f 2/2/2 18/35/2 16/31/2
f 16/32/9 17/34/10 15/30/9
f 1/1/1 17/33/1 19/37/1
f 2/2/2 20/39/2 18/35/2
f 18/36/10 19/38/11 17/34/10
f 1/1/1 19/37/1 21/41/1
f 2/2/2 22/43/2 20/39/2
f 20/40/11 21/42/12 19/38/11
f 1/1/1 21/41/1 23/45/1
f 2/2/2 24/47/2 22/43/2
f 22/44/12 23/46/13 21/42/12
f 1/1/1 23/45/1 25/49/1
f 2/2/2 26/51/2 24/47/2
f 24/48/13 25/50/14 23/46/13
f 1/1/1 25/49/1 27/53/1
f 2/2/2 28/55/2 26/51/2
f 26/52/14 27/54/15 25/50/14
f 1/1/1 27/53/1 29/57/1
f 2/2/2 30/59/2 28/55/2
f 28/56/15 29/58/16 27/54/15
f 1/1/1 29/57/1 31/61/1
f 2/2/2 32/63/2 30/59/2
f 30/60/16 31/62/17 29/58/16
f 1/1/1 31/61/1 33/65/1
f 2/2/2 34/67/2 32/63/2
f 32/64/17 33/66/18 31/62/17
f 1/1/1 33/65/1 35/69/1
f 2/2/2 36/71/2 34/67/2
f 34/68/18 35/70/19 33/66/18
f 1/1/1 35/69/1 37/73/1
f 2/2/2 38/75/2 36/71/2
f 36/72/19 37/74/20 35/70/19
f 1/1/1 37/73/1 39/77/1
f 2/2/2 40/79/2 38/75/2
f 38/76/20 39/78/21 37/74/20
f 1/1/1 39/77/1 41/81/1
f 2/2/2 42/83/2 40/79/2
f 40/80/21 41/82/22 39/78/21
f 1/1/1 41/81/1 43/85/1
f 2/2/2 44/87/2 42/83/2
f 42/84/22 43/86/23 41/82/22
f 1/1/1 43/85/1 45/89/1
f 2/2/2 46/91/2 44/87/2
f 44/88/23 45/90/24 43/86/23
f 1/1/1 45/89/1 47/93/1
f 2/2/2 48/95/2 46/91/2
f 46/92/24 47/94/25 45/90/24
f 1/1/1 47/93/1 49/97/1
f 2/2/2 50/99/2 48/95/2
f 48/96/25 49/98/26 47/94/25
f 1/1/1 49/97/1 51/101/1
f 2/2/2 52/103/2 50/99/2
f 50/100/26 51/102/27 49/98/26
f 1/1/1 51/101/1 53/105/1
f 2/2/2 54/107/2 52/103/2
f 52/104/27 53/106/28 51/102/27
f 1/1/1 53/105/1 55/109/1
f 2/2/2 56/111/2 54/107/2
f 54/108/28 55/110/29 53/106/28
f 1/1/1 55/109/1 57/113/1
f 2/2/2 58/115/2 56/111/2
f 56/112/29 57/114/30 55/110/29
f 1/1/1 57/113/1 59/117/1
f 2/2/2 60/119/2 58/115/2
f 58/116/30 59/118/31 57/114/30
f 1/1/1 59/117/1 61/121/1
f 2/2/2 62/123/2 60/119/2
f 60/120/31 61/122/32 59/118/31
f 1/1/1 61/121/1 63/125/1
f 2/2/2 64/127/2 62/123/2
f 62/124/32 63/126/33 61/122/32
f 1/1/1 63/125/1 65/129/1
f 2/2/2 66/131/2 64/127/2
f 64/128/33 65/130/34 63/126/33
f 1/1/1 65/129/1 3/4/1
f 2/2/2 4/6/2 66/131/2
f 66/132/34 3/5/3 65/130/34
f 4/7/3 6/12/4 5/10/4
f 6/12/4 8/16/5 7/14/5
f 8/16/5 10/20/6 9/18/6
f 10/20/6 12/24/7 11/22/7
f 12/24/7 14/28/8 13/26/8
f 14/28/8 16/32/9 15/30/9
f 16/32/9 18/36/10 17/34/10
f 18/36/10 20/40/11 19/38/11
f 20/40/11 22/44/12 21/42/12
f 22/44/12 24/48/13 23/46/13
f 24/48/13 26/52/14 25/50/14
f 26/52/14 28/56/15 27/54/15
f 28/56/15 30/60/16 29/58/16
f 30/60/16 32/64/17 31/62/17
f 32/64/17 34/68/18 33/66/18
f 34/68/18 36/72/19 35/70/19
f 36/72/19 38/76/20 37/74/20
f 38/76/20 40/80/21 39/78/21
f 40/80/21 42/84/22 41/82/22
f 42/84/22 44/88/23 43/86/23
f 44/88/23 46/92/24 45/90/24
f 46/92/24 48/96/25 47/94/25
f 48/96/25 50/100/26 49/98/26
f 50/100/26 52/104/27 51/102/27
f 52/104/27 54/108/28 53/106/28
f 54/108/28 56/112/29 55/110/29
f 56/112/29 58/116/30 57/114/30
f 58/116/30 60/120/31 59/118/31
f 60/120/31 62/124/32 61/122/32
f 62/124/32 64/128/33 63/126/33
f 64/128/33 66/132/34 65/130/34
f 66/132/34 4/8/3 3/5/3
